<?xml version="1.0" encoding="UTF-8"?>
<svg id="Ebene_2" data-name="Ebene 2" xmlns="http://www.w3.org/2000/svg" viewBox="0 0 24 24">
  <defs>
    <style>
      .cls-1 {
        fill: #f4a3a5;
        fill-rule: evenodd;
      }
    </style>
  </defs>
  <g id="Ebene_1-2" data-name="Ebene 1">
    <path class="cls-1" d="M20.65,22.11v-2.2c1.91-.42,3.34-2.24,3.34-4.41,0-1.38-.29-1.66-3.54-10.04-.01,0-.16-.46-.65-.46s-.63.46-.64.46c-.61,1.58-1.11,2.86-1.53,3.94.73,1.81.85,2.41.85,3.44,0,1.97-.88,3.74-2.29,4.93.59,1.09,1.59,1.88,2.77,2.14v1.74c-1.54-.34-3.53-.59-6.07-.64v-2.76c2.6-.44,4.58-2.7,4.58-5.42,0-1.69-.38-2.03-4.65-12.27-.01,0-.21-.56-.85-.56s-.83.56-.85.56c-4.63,11.15-4.65,10.84-4.65,12.27,0,2.72,1.98,4.99,4.58,5.42v2.76c-2.56.05-4.57.3-6.12.65v-1.75c1.19-.26,2.19-1.08,2.77-2.19-1.38-1.2-2.24-2.95-2.24-4.89,0-.93.02-1.28.84-3.32-.42-1.09-.94-2.41-1.57-4.05-.01,0-.16-.46-.64-.46s-.63.46-.64.46C.02,14.58,0,14.33,0,15.5c0,2.17,1.42,3.99,3.31,4.41v2.21c-2.59.85-3.31,1.88-3.31,1.88h24s-.73-1.04-3.35-1.89Z"/>
  </g>
</svg>