<?xml version="1.0" encoding="UTF-8"?>
<svg id="Ebene_2" data-name="Ebene 2" xmlns="http://www.w3.org/2000/svg" viewBox="0 0 22 24">
  <defs>
    <style>
      .cls-1 {
        fill: #f4a3a5;
        fill-rule: evenodd;
      }
    </style>
  </defs>
  <g id="Ebene_1-2" data-name="Ebene 1">
    <path class="cls-1" d="M0,15c4.07-1.12,9.51.51,11,6,1.98-5.94,7.95-7.05,11-6-2.47,1.52-3.5,9-11,9S2.51,16.53,0,15ZM8.2,2.92c0-1.61,1.32-2.92,2.93-2.92s2.93,1.31,2.93,2.92c1.4-.8,3.19-.32,3.99,1.08.81,1.4.33,3.19-1.06,4,1.39.81,1.87,2.6,1.06,4-.81,1.4-2.59,1.88-3.99,1.08,0,1.61-1.32,2.92-2.93,2.92s-2.93-1.31-2.93-2.92c-1.4.8-3.19.32-3.99-1.08-.81-1.4-.33-3.19,1.06-4-1.39-.81-1.87-2.6-1.06-4,.81-1.4,2.6-1.88,4-1.08ZM11,5.5c1.38,0,2.5,1.12,2.5,2.5s-1.12,2.5-2.5,2.5-2.5-1.12-2.5-2.5,1.12-2.5,2.5-2.5Z"/>
  </g>
</svg>