<?xml version="1.0" encoding="UTF-8"?>
<svg id="Ebene_2" data-name="Ebene 2" xmlns="http://www.w3.org/2000/svg" viewBox="0 0 24 24">
  <defs>
    <style>
      .cls-1 {
        fill: #f4a3a5;
        fill-rule: evenodd;
      }
    </style>
  </defs>
  <g id="Ebene_1-2" data-name="Ebene 1">
    <path class="cls-1" d="M13,24h-2V5s1.01,1,1.01,1l.98-1v19ZM10.22,15.62c-1.58-.51-3.14-.23-4.11.63-1.52,1.35-1.22,3.62-1.22,3.62,0,0,2.58.75,4.11-.61,1.46-1.3,1.22-3.46,1.22-3.63ZM13.77,15.62c1.58-.51,3.14-.23,4.11.63,1.52,1.35,1.22,3.62,1.22,3.62,0,0-2.58.75-4.11-.61-1.46-1.3-1.22-3.46-1.22-3.63ZM18.07,14.47c1.15-.97,2.56-1.27,3.66-.88,1.74.62,2.26,2.62,2.26,2.62,0,0-1.91,1.51-3.66.89-1.67-.59-2.21-2.48-2.27-2.63ZM5.93,14.47c-1.15-.97-2.56-1.27-3.66-.88-1.74.62-2.26,2.62-2.26,2.62,0,0,1.91,1.51,3.66.89,1.67-.59,2.21-2.48,2.27-2.63ZM10.16,14.43c.25-1.4-.16-2.69-1-3.41-1.32-1.13-3.21-.62-3.21-.62,0,0-.34,2.27.99,3.42,1.27,1.09,3.07.64,3.22.62ZM13.84,14.43c-.25-1.4.16-2.69,1-3.41,1.32-1.13,3.21-.62,3.21-.62,0,0,.34,2.27-.99,3.42-1.27,1.09-3.07.64-3.22.62ZM18.38,12.09c.42-1.21,1.32-2.05,2.3-2.24,1.54-.31,2.8.93,2.8.93,0,0-.74,1.94-2.29,2.25-1.48.3-2.7-.86-2.81-.94ZM5.62,12.09c-.42-1.21-1.32-2.05-2.3-2.24-1.54-.31-2.8.93-2.8.93,0,0,.74,1.94,2.29,2.25,1.48.3,2.7-.86,2.81-.94ZM13.58,9.73c-.02-1.32.55-2.45,1.43-2.98,1.38-.84,3.04-.09,3.04-.09,0,0-.03,2.14-1.42,2.99-1.33.81-2.91.13-3.05.09ZM10.42,9.73c.02-1.32-.55-2.45-1.43-2.98-1.38-.84-3.04-.09-3.04-.09,0,0,.03,2.14,1.42,2.99,1.33.81,2.91.13,3.05.09ZM5.63,9.23c.07-1.16-.39-2.18-1.14-2.69-1.19-.8-2.68-.21-2.68-.21,0,0-.07,1.89,1.13,2.7,1.14.77,2.57.23,2.69.2ZM18.37,9.23c-.08-1.16.39-2.18,1.14-2.69,1.19-.8,2.68-.21,2.68-.21,0,0,.07,1.89-1.13,2.7-1.14.77-2.57.23-2.69.2ZM14.21,6.27c-.57-1.1-.55-2.29-.03-3.11.82-1.29,2.52-1.34,2.52-1.34,0,0,.87,1.81.05,3.11-.78,1.24-2.41,1.32-2.53,1.34ZM9.79,6.27c.57-1.1.55-2.29.03-3.11-.82-1.29-2.52-1.34-2.52-1.34,0,0-.87,1.81-.05,3.11.78,1.24,2.41,1.32,2.53,1.34ZM6.8,5.98c.06-.98-.32-1.84-.96-2.27-1-.67-2.25-.17-2.25-.17,0,0-.05,1.59.95,2.27.96.65,2.16.2,2.26.17ZM17.2,5.98c-.06-.98.33-1.84.96-2.27,1-.67,2.25-.17,2.25-.17,0,0,.05,1.59-.95,2.27-.96.65-2.16.2-2.26.17ZM12.04,4.92c-.99-.67-1.54-1.68-1.48-2.61.09-1.47,1.5-2.31,1.5-2.31,0,0,1.58,1.13,1.49,2.61-.09,1.41-1.41,2.24-1.51,2.32Z"/>
  </g>
</svg>